squats_1_grf
version=1
nRows=34
nColumns=19
inDegrees=no
endheader
time	ground_force_right_vx	ground_force_right_vy	ground_force_right_vz	ground_force_right_px	ground_force_right_py	ground_force_right_pz	ground_force_right_mx	ground_force_right_my	ground_force_right_mz	ground_force_left_vx	ground_force_left_vy	ground_force_left_vz	ground_force_left_px	ground_force_left_py	ground_force_left_pz	ground_force_left_mx	ground_force_left_my	ground_force_left_mz
     45.39400000	      4.74853825	    385.93113825	     41.06157648	     -3.55046797	      0.00726582	      2.25699933	     -0.01489137	      5.10884978	      0.02313160	     -4.84562650	    438.41452574	    -62.16604711	     -3.52081641	      0.00794021	      2.76227369	      0.00777488	     -2.34006562	      0.00406347
     45.39500000	      4.73385359	    386.24388831	     41.15468926	     -3.55035535	      0.00726617	      2.25699556	     -0.01492936	      5.12188517	      0.02319062	     -4.82096768	    438.59834329	    -62.24699558	     -3.52069554	      0.00794060	      2.76226459	      0.00786358	     -2.36676051	      0.00410983
     45.39600000	      4.72551196	    386.52391135	     41.24685741	     -3.55024724	      0.00726651	      2.25698999	     -0.01496794	      5.13511877	      0.02325054	     -4.79536789	    438.76689036	    -62.33051652	     -3.52057411	      0.00794099	      2.76225626	      0.00795184	     -2.39332578	      0.00415596
     45.39700000	      4.72372066	    386.77055322	     41.33856274	     -3.55014359	      0.00726684	      2.25698256	     -0.01500701	      5.14852375	      0.02331123	     -4.76918438	    438.92058221	    -62.41659402	     -3.52045196	      0.00794138	      2.76224858	      0.00803963	     -2.41974985	      0.00420184
     45.39800000	      4.72867360	    386.98335234	     41.43027098	     -3.55004431	      0.00726717	      2.25697324	     -0.01504651	      5.16207386	      0.02337259	     -4.74277247	    439.05989140	    -62.50516370	     -3.52032891	      0.00794178	      2.76224138	      0.00812693	     -2.44602463	      0.00424747
     45.39900000	      4.74054641	    387.16205372	     41.52242112	     -3.54994933	      0.00726750	      2.25696199	     -0.01508635	      5.17574401	      0.02343448	     -4.71648407	    439.18534198	    -62.59611011	     -3.52020480	      0.00794218	      2.76223451	      0.00821372	     -2.47214580	      0.00429283
     45.40000000	      4.75949136	    387.30662111	     41.61541544	     -3.54985852	      0.00726783	      2.25694880	     -0.01512648	      5.18951088	      0.02349681	     -4.69066605	    439.29750309	    -62.68926481	     -3.52007946	      0.00794258	      2.76222782	      0.00829999	     -2.49811304	      0.00433792
     45.40100000	      4.78563223	    387.41724686	     41.70961033	     -3.54977174	      0.00726815	      2.25693369	     -0.01516683	      5.20335343	      0.02355949	     -4.66565871	    439.39698223	    -62.78440511	     -3.51995275	      0.00794299	      2.76222111	      0.00838577	     -2.52393016	      0.00438275
     45.40200000	      4.81905911	    387.49435925	     41.80530820	     -3.54968884	      0.00726847	      2.25691669	     -0.01520735	      5.21725337	      0.02362242	     -4.64179431	    439.48441814	    -62.88125366	     -3.51982451	      0.00794340	      2.76221422	      0.00847108	     -2.54960527	      0.00442733
     45.40300000	      4.85982329	    387.53862717	     41.90275044	     -3.54960963	      0.00726878	      2.25689783	     -0.01524798	      5.23119551	      0.02368555	     -4.61939564	    439.56047362	    -62.97947875	     -3.51969459	      0.00794382	      2.76220696	      0.00855595	     -2.57515086	      0.00447169
     45.40400000	      4.90793233	    387.55096185	     42.00211171	     -3.54953392	      0.00726910	      2.25687720	     -0.01528871	      5.24516810	      0.02374882	     -4.59877480	    439.62582822	    -63.07869543	     -3.51956285	      0.00794425	      2.76219914	      0.00864045	     -2.60058373	      0.00451586
     45.40500000	      4.96334539	    387.53251555	     42.10349560	     -3.54946147	      0.00726941	      2.25685486	     -0.01532950	      5.25916305	      0.02381218	     -4.58023211	    439.68117110	    -63.17846728	     -3.51942915	      0.00794468	      2.76219060	      0.00872465	     -2.62592502	      0.00455986
     45.40600000	      5.02596890	    387.48467721	     42.20693173	     -3.54939205	      0.00726972	      2.25683094	     -0.01537035	      5.27317606	      0.02387563	     -4.56405534	    439.72719397	    -63.27830910	     -3.51929336	      0.00794511	      2.76218114	      0.00880863	     -2.65119999	      0.00460375
     45.40700000	      5.09565267	    387.40906495	     42.31237434	     -3.54932538	      0.00727003	      2.25680556	     -0.01541125	      5.28720670	      0.02393916	     -4.55051906	    439.76458433	    -63.37769014	     -3.51915535	      0.00794555	      2.76217059	      0.00889248	     -2.67643785	      0.00464758
     45.40800000	      5.17218660	    387.30751540	     42.41970252	     -3.54926119	      0.00727034	      2.25677885	     -0.01545221	      5.30125838	      0.02400278	     -4.53988434	    439.79401906	    -63.47603817	     -3.51901501	      0.00794600	      2.76215878	      0.00897632	     -2.70167140	      0.00469139
     45.40900000	      5.25529794	    387.18207018	     42.52872178	     -3.54919917	      0.00727064	      2.25675098	     -0.01549325	      5.31533828	      0.02406653	     -4.53239873	    439.81615843	    -63.57274412	     -3.51887222	      0.00794645	      2.76214554	      0.00906026	     -2.72693670	      0.00473527
     45.41000000	      5.34464931	    387.03495943	     42.63916730	     -3.54913902	      0.00727095	      2.25672212	     -0.01553440	      5.32945722	      0.02413046	     -4.52829643	    439.83164061	    -63.66716737	     -3.51872687	      0.00794691	      2.76213073	      0.00914444	     -2.75227255	      0.00477926
     45.41100000	      5.43983746	    386.86858278	     42.75070850	     -3.54908040	      0.00727126	      2.25669244	     -0.01557571	      5.34362940	      0.02419462	     -4.52779884	    439.84107679	    -63.75864166	     -3.51857888	      0.00794737	      2.76211419	      0.00922899	     -2.77772006	      0.00482345
     45.41200000	      5.54039289	    386.68548801	     42.86295489	     -3.54902299	      0.00727156	      2.25666216	     -0.01561722	      5.35787217	      0.02425911	     -4.53111521	    439.84504678	    -63.84648145	     -3.51842813	      0.00794784	      2.76209581	      0.00931405	     -2.80332197	      0.00486791
     45.41300000	      5.64578029	    386.48834767	     42.97546325	     -3.54896644	      0.00727186	      2.25663147	     -0.01565900	      5.37220569	      0.02432401	     -4.53844355	    439.84409546	    -63.92998883	     -3.51827457	      0.00794831	      2.76207546	      0.00939977	     -2.82912207	      0.00491271
     45.41400000	      5.75539990	    386.27993405	     43.08774572	     -3.54891039	      0.00727217	      2.25660057	     -0.01570111	      5.38665250	      0.02438942	     -4.54997166	    439.83872970	    -64.00846074	     -3.51811811	      0.00794879	      2.76205304	      0.00948630	     -2.85516452	      0.00495793
     45.41500000	      5.86858982	    386.06309297	     43.19927894	     -3.54885450	      0.00727247	      2.25656968	     -0.01574363	      5.40123718	      0.02445546	     -4.56587818	    439.82941607	    -64.08119652	     -3.51795870	      0.00794928	      2.76202845	      0.00957378	     -2.88149307	      0.00500365
     45.41600000	      5.98462920	    385.84071657	     43.30951387	     -3.54879840	      0.00727277	      2.25653901	     -0.01578661	      5.41598578	      0.02452224	     -4.58633365	    439.81657916	    -64.14750561	     -3.51779629	      0.00794977	      2.76200164	      0.00966235	     -2.90815040	      0.00504994
     45.41700000	      6.10274248	    385.61571593	     43.41788616	     -3.54874175	      0.00727307	      2.25650878	     -0.01583016	      5.43092541	      0.02458988	     -4.61150148	    439.80060070	    -64.20671539	     -3.51763085	      0.00795027	      2.76197253	      0.00975214	     -2.93517731	      0.00509687
     45.41800000	      6.22210437	    385.39099355	     43.52382691	     -3.54868420	      0.00727338	      2.25647918	     -0.01587434	      5.44608367	      0.02465851	     -4.64153873	    439.78181923	    -64.25817893	     -3.51746235	      0.00795078	      2.76194110	      0.00984330	     -2.96261211	      0.00514451
     45.41900000	      6.34184589	    385.16941654	     43.62677357	     -3.54862540	      0.00727368	      2.25645042	     -0.01591925	      5.46148813	      0.02472826	     -4.67659672	    439.76053049	    -64.30128261	     -3.51729080	      0.00795129	      2.76190731	      0.00993592	     -2.99048988	      0.00519292
     45.42000000	      6.46106106	    384.95379067	     43.72618069	     -3.54856502	      0.00727398	      2.25642268	     -0.01596494	      5.47716579	      0.02479924	     -4.71682135	    439.73698843	    -64.33545346	     -3.51711619	      0.00795181	      2.76187117	      0.01003012	     -3.01884194	      0.00524215
     45.42100000	      6.57881447	    384.74683594	     43.82153047	     -3.54850274	      0.00727428	      2.25639617	     -0.01601151	      5.49314257	      0.02487158	     -4.76235309	    439.71140665	    -64.36016609	     -3.51693855	      0.00795233	      2.76183267	      0.01012599	     -3.04769532	      0.00529226
     45.42200000	      6.69414933	    384.55116385	     43.91234271	     -3.54843823	      0.00727458	      2.25637103	     -0.01605902	      5.50944277	      0.02494539	     -4.81332667	    439.68396040	    -64.37494919	     -3.51675793	      0.00795286	      2.76179186	      0.01022359	     -3.07707227	      0.00534327
     45.42300000	      6.80609623	    384.36925686	     43.99818404	     -3.54837122	      0.00727488	      2.25634744	     -0.01610754	      5.52608863	      0.02502075	     -4.86987043	    439.65478879	    -64.37939137	     -3.51657439	      0.00795339	      2.76174876	      0.01032299	     -3.10698999	      0.00539522
     45.42400000	      6.91368223	    384.20345024	     44.07867631	     -3.54830140	      0.00727519	      2.25632553	     -0.01615713	      5.54309988	      0.02509778	     -4.93210517	    439.62399741	    -64.37314629	     -3.51638799	      0.00795393	      2.76170345	      0.01042423	     -3.13746033	      0.00544813
     45.42500000	      7.01594023	    384.05591648	     44.15350385	     -3.54822851	      0.00727549	      2.25630545	     -0.01620783	      5.56049340	      0.02517653	     -5.00014273	    439.59166088	    -64.35593715	     -3.51619884	      0.00795448	      2.76165598	      0.01052733	     -3.16848967	      0.00550201
     45.42600000	      7.11191860	    383.92865249	     44.22241951	     -3.54815232	      0.00727580	      2.25628729	     -0.01625968	      5.57828286	      0.02525708	     -5.07408409	    439.55782558	    -64.32756018	     -3.51600704	      0.00795503	      2.76160646	      0.01063228	     -3.20007883	      0.00555687
     45.42700000	      7.20069071	    383.82346957	     44.28524948	     -3.54807259	      0.00727610	      2.25627116	     -0.01631272	      5.59647854	      0.02533946	     -5.15401710	    439.52251220	    -64.28788741	     -3.51581272	      0.00795559	      2.76155498	      0.01073908	     -3.23222320	      0.00561268
